# xmcd CD database file generated by Grip 3.3.1
# 
# Track frame offsets:
#       150
#       47753
#       67649
#       109461
#       167959
#       201669
#       238677
# 
# Disc length: 3764 seconds
# 
# Revision: 1
# Processed by: cddbd v1.5.2PL0 Copyright (c) Steve Scherf et al.
# Submitted via: Grip 3.3.1
# 
DISCID=640eb207
DTITLE=Nikolay Rimsky-Korsakov - Piano Trio in C Minor, Quintet in B fla
DTITLE=t
DYEAR=2012
DGENRE=Classical
TTITLE0=I. Allegro - Piano Trio in C minor - Oistrakh Trio (David Oistrak
TTITLE0=h (violin), Sviatoslav Knushevitsky (cello), Lev Oborin (piano))
TTITLE1=II. Allegro - Piano Trio in C minor - Oistrakh Trio (David Oistra
TTITLE1=kh (violin), Sviatoslav Knushevitsky (cello), Lev Oborin (piano))
TTITLE2=III. Adagio - Piano Trio in C minor - Oistrakh Trio (David Oistra
TTITLE2=kh (violin), Sviatoslav Knushevitsky (cello), Lev Oborin (piano))
TTITLE3=IV. Adagio - Allegro assai - Piano Trio in C minor - Oistrakh Tri
TTITLE3=o (David Oistrakh (violin), Sviatoslav Knushevitsky (cello), Lev 
TTITLE3=Oborin (piano))
TTITLE4=I. Allegro con brio - Quintet in B flat - Felicja Blumental (pian
TTITLE4=o), members New Philharmonia Wind Ensemble, Londen
TTITLE5=II. Andante - Quintet in B flat - Felicja Blumental (piano), memb
TTITLE5=ers New Philharmonia Wind Ensemble, Londen
TTITLE6=III. Rondo: Allegretto - Quintet in B flat - Felicja Blumental (p
TTITLE6=iano), members New Philharmonia Wind Ensemble, Londen
EXTD=
EXTT0=
EXTT1=
EXTT2=
EXTT3=
EXTT4=
EXTT5=
EXTT6=
PLAYORDER=
